<svg xmlns="http://www.w3.org/2000/svg" xmlns:xlink="http://www.w3.org/1999/xlink" viewBox="0 0 97 24"><path d="M 28.452 16.948 L 35.353 16.948 L 35.353 14.84 L 30.905 14.84 L 30.905 6.903 L 28.452 6.903 Z M 39.441 15.543 C 38.458 15.543 37.945 14.672 37.945 13.365 C 37.945 12.059 38.458 11.173 39.441 11.173 C 40.425 11.173 40.952 12.059 40.952 13.365 C 40.952 14.672 40.425 15.543 39.441 15.543 Z M 39.455 17.172 C 41.742 17.172 43.238 15.529 43.238 13.365 C 43.238 11.202 41.742 9.558 39.455 9.558 C 37.183 9.558 35.658 11.202 35.658 13.365 C 35.658 15.529 37.183 17.172 39.455 17.172 Z M 47.196 19.434 C 48.249 19.434 49.177 19.195 49.801 18.633 C 50.369 18.114 50.743 17.327 50.743 16.245 L 50.743 9.755 L 48.581 9.755 L 48.581 10.527 L 48.554 10.527 C 48.138 9.923 47.501 9.544 46.558 9.544 C 44.798 9.544 43.579 11.033 43.579 13.14 C 43.579 15.346 45.062 16.554 46.655 16.554 C 47.514 16.554 48.055 16.203 48.471 15.725 L 48.526 15.725 L 48.526 16.442 C 48.526 17.313 48.124 17.819 47.168 17.819 C 46.42 17.819 46.046 17.495 45.921 17.116 L 43.731 17.116 C 43.953 18.619 45.242 19.434 47.196 19.434 Z M 47.182 14.854 C 46.337 14.854 45.782 14.152 45.782 13.07 C 45.782 11.974 46.337 11.272 47.182 11.272 C 48.124 11.272 48.623 12.087 48.623 13.056 C 48.623 14.068 48.166 14.854 47.182 14.854 Z M 55.188 15.543 C 54.204 15.543 53.691 14.672 53.691 13.365 C 53.691 12.059 54.204 11.173 55.188 11.173 C 56.172 11.173 56.698 12.059 56.698 13.365 C 56.698 14.672 56.172 15.543 55.188 15.543 Z M 55.202 17.172 C 57.488 17.172 58.985 15.529 58.985 13.365 C 58.985 11.202 57.488 9.558 55.202 9.558 C 52.929 9.558 51.405 11.202 51.405 13.365 C 51.405 15.529 52.929 17.172 55.202 17.172 Z M 59.645 16.948 L 61.903 16.948 L 61.903 9.755 L 59.645 9.755 Z M 59.645 8.757 L 61.903 8.757 L 61.903 6.903 L 59.645 6.903 Z M 62.883 19.322 L 65.142 19.322 L 65.142 16.203 L 65.17 16.203 C 65.613 16.807 66.264 17.172 67.179 17.172 C 69.036 17.172 70.269 15.683 70.269 13.351 C 70.269 11.188 69.119 9.544 67.234 9.544 C 66.264 9.544 65.571 9.979 65.086 10.626 L 65.045 10.626 L 65.045 9.755 L 62.883 9.755 Z M 66.597 15.402 C 65.627 15.402 65.073 14.601 65.073 13.435 C 65.073 12.269 65.571 11.384 66.555 11.384 C 67.525 11.384 67.983 12.199 67.983 13.435 C 67.983 14.658 67.456 15.402 66.597 15.402 Z M 73.946 17.172 C 75.803 17.172 77.175 16.357 77.175 14.784 C 77.175 12.944 75.706 12.62 74.459 12.41 C 73.558 12.241 72.755 12.171 72.755 11.665 C 72.755 11.216 73.184 11.005 73.738 11.005 C 74.362 11.005 74.792 11.202 74.875 11.848 L 76.953 11.848 C 76.842 10.429 75.762 9.544 73.752 9.544 C 72.076 9.544 70.69 10.331 70.69 11.848 C 70.69 13.534 72.006 13.871 73.24 14.082 C 74.182 14.25 75.041 14.32 75.041 14.967 C 75.041 15.43 74.611 15.683 73.932 15.683 C 73.184 15.683 72.713 15.332 72.63 14.615 L 70.496 14.615 C 70.565 16.203 71.868 17.172 73.946 17.172 Z M 80.243 17.158 C 81.227 17.158 81.851 16.765 82.363 16.062 L 82.405 16.062 L 82.405 16.948 L 84.567 16.948 L 84.567 9.755 L 82.308 9.755 L 82.308 13.772 C 82.308 14.629 81.837 15.22 81.061 15.22 C 80.34 15.22 79.994 14.784 79.994 13.997 L 79.994 9.755 L 77.749 9.755 L 77.749 14.475 C 77.749 16.076 78.608 17.158 80.243 17.158 Z M 85.549 16.948 L 87.808 16.948 L 87.808 12.916 C 87.808 12.059 88.224 11.454 88.931 11.454 C 89.61 11.454 89.928 11.904 89.928 12.677 L 89.928 16.948 L 92.187 16.948 L 92.187 12.916 C 92.187 12.059 92.589 11.454 93.309 11.454 C 93.988 11.454 94.307 11.904 94.307 12.677 L 94.307 16.948 L 96.566 16.948 L 96.566 12.269 C 96.566 10.654 95.762 9.544 94.155 9.544 C 93.24 9.544 92.478 9.937 91.924 10.808 L 91.896 10.808 C 91.536 10.036 90.829 9.544 89.901 9.544 C 88.875 9.544 88.196 10.036 87.753 10.78 L 87.711 10.78 L 87.711 9.755 L 85.549 9.755 Z" fill="rgba(255, 255, 255, 0.8)"/><path d="M 14.671 1.157 L 12.4 0.54 L 10.487 7.781 L 8.759 1.244 L 6.488 1.861 L 8.355 8.924 L 3.705 4.211 L 2.043 5.896 L 7.143 11.066 L 0.792 9.341 L 0.183 11.643 L 7.123 13.528 C 6.685 11.615 7.449 9.625 9.048 8.516 C 10.647 7.407 12.753 7.405 14.353 8.512 C 15.953 9.619 16.72 11.608 16.285 13.521 L 22.592 15.234 L 23.2 12.932 L 16.233 11.039 L 22.584 9.314 L 21.976 7.012 L 15.01 8.904 L 19.659 4.191 L 17.996 2.505 L 12.967 7.604 L 14.671 1.157 Z" fill="rgba(255, 255, 255, 0.8)"/><path d="M 16.279 13.548 C 16.087 14.368 15.683 15.122 15.109 15.733 L 19.678 20.365 L 21.341 18.679 Z M 15.063 15.781 C 14.484 16.381 13.759 16.816 12.962 17.041 L 14.624 23.331 L 16.895 22.714 Z M 12.877 17.063 C 12.494 17.163 12.099 17.214 11.703 17.213 C 11.279 17.214 10.857 17.156 10.449 17.042 L 8.785 23.339 L 11.056 23.956 L 12.877 17.064 Z M 10.369 17.019 C 9.582 16.783 8.871 16.342 8.304 15.74 L 3.725 20.384 L 5.387 22.07 L 10.369 17.018 Z M 8.266 15.7 C 7.707 15.093 7.314 14.35 7.126 13.542 L 0.799 15.26 L 1.407 17.563 Z" fill="rgba(255, 255, 255, 0.8)"/></svg>