
<svg xmlns="http://www.w3.org/2000/svg" xmlns:xlink="http://www.w3.org/1999/xlink" viewBox="0 0 129 24"><path d="M 11.727 24 C 18.204 24 23.455 18.628 23.455 12 L 23.455 3.6 C 23.455 1.612 21.879 0 19.936 0 L 12.314 0 L 12.314 5.264 C 12.314 6.466 12.385 7.71 13.001 8.732 C 13.893 10.215 15.37 11.228 17.049 11.509 L 17.274 11.546 C 17.464 11.612 17.591 11.795 17.591 12 C 17.591 12.205 17.464 12.388 17.274 12.454 L 17.049 12.491 C 14.563 12.907 12.614 14.901 12.208 17.446 L 12.171 17.675 C 12.106 17.87 11.928 18 11.727 18 C 11.527 18 11.348 17.87 11.283 17.675 L 11.247 17.446 C 10.973 15.727 9.983 14.216 8.534 13.303 C 7.535 12.673 6.319 12.6 5.145 12.6 L 0.014 12.6 C 0.321 18.949 5.447 24 11.727 24 Z" fill="rgba(255, 255, 255, 0.8)"></path><path d="M 0 11.4 L 5.145 11.4 C 6.319 11.4 7.535 11.327 8.534 10.697 C 9.315 10.204 9.972 9.532 10.454 8.732 C 11.069 7.71 11.141 6.466 11.141 5.264 L 11.141 0 L 3.518 0 C 1.575 0 0 1.612 0 3.6 Z M 27.24 1.2 C 27.24 1.863 26.714 2.4 26.067 2.4 C 25.419 2.4 24.894 1.863 24.894 1.2 C 24.894 0.537 25.419 0 26.067 0 C 26.714 0 27.24 0.537 27.24 1.2 Z M 124.14 7.262 C 127.418 7.262 129 9.605 129 12.319 L 129 17.416 L 125.569 17.416 L 125.569 12.924 C 125.569 11.694 125.131 10.679 123.873 10.679 C 122.615 10.679 122.196 11.694 122.196 12.924 L 122.196 17.416 L 118.765 17.416 L 118.765 12.924 C 118.765 11.694 118.346 10.679 117.087 10.679 C 115.83 10.679 115.391 11.694 115.391 12.924 L 115.391 17.416 L 111.961 17.416 L 111.961 12.319 C 111.961 9.605 113.542 7.262 116.821 7.262 C 118.613 7.262 119.908 7.984 120.499 9.175 C 121.128 7.984 122.501 7.261 124.14 7.261 Z M 105.796 14.292 C 106.901 14.292 107.378 13.257 107.378 12.026 L 107.378 7.652 L 110.808 7.652 L 110.808 12.456 C 110.808 15.326 109.169 17.709 105.796 17.709 C 102.422 17.709 100.783 15.327 100.783 12.456 L 100.783 7.652 L 104.214 7.652 L 104.214 12.026 C 104.214 13.256 104.69 14.292 105.796 14.292 Z M 95.739 17.728 C 93.585 17.728 92.193 16.967 91.374 15.483 L 93.852 14.057 C 94.195 14.682 94.709 14.995 95.567 14.995 C 96.272 14.995 96.596 14.741 96.596 14.428 C 96.596 13.237 91.564 14.448 91.564 10.66 C 91.564 8.824 93.089 7.34 95.681 7.34 C 97.949 7.34 99.188 8.473 99.741 9.566 L 97.263 11.011 C 97.054 10.426 96.405 10.074 95.757 10.074 C 95.262 10.074 94.995 10.289 94.995 10.582 C 94.995 11.792 100.027 10.679 100.027 14.35 C 100.027 16.4 98.063 17.728 95.739 17.728 Z M 83.752 21.907 L 80.321 21.907 L 80.321 12.515 C 80.321 9.527 82.513 7.36 85.563 7.36 C 88.536 7.36 90.804 9.683 90.804 12.515 C 90.804 15.639 88.784 17.709 85.753 17.709 C 85.048 17.709 84.343 17.494 83.752 17.162 Z M 85.563 14.409 C 86.649 14.409 87.373 13.55 87.373 12.534 C 87.373 11.5 86.649 10.66 85.563 10.66 C 84.476 10.66 83.752 11.5 83.752 12.535 C 83.752 13.55 84.476 14.409 85.563 14.409 Z M 76.885 6.618 C 75.76 6.618 74.826 5.661 74.826 4.509 C 74.826 3.357 75.76 2.4 76.885 2.4 C 78.009 2.4 78.943 3.357 78.943 4.509 C 78.943 5.661 78.009 6.618 76.885 6.618 Z M 75.169 7.652 L 78.6 7.652 L 78.6 17.416 L 75.169 17.416 Z M 68.587 17.709 C 65.613 17.709 63.345 15.366 63.345 12.515 C 63.345 9.683 65.613 7.34 68.587 7.34 C 71.56 7.34 73.828 9.683 73.828 12.515 C 73.828 15.366 71.56 17.709 68.587 17.709 Z M 68.587 14.409 C 69.673 14.409 70.398 13.55 70.398 12.534 C 70.398 11.5 69.673 10.64 68.587 10.64 C 67.5 10.64 66.776 11.5 66.776 12.534 C 66.776 13.55 67.5 14.409 68.587 14.409 Z M 56.867 22.2 C 54.504 22.2 52.789 21.126 51.912 19.212 L 54.752 17.65 C 55.057 18.314 55.628 18.998 56.81 18.998 C 58.049 18.998 58.869 18.197 58.964 16.791 C 58.507 17.201 57.782 17.513 56.696 17.513 C 54.046 17.513 51.911 15.424 51.911 12.495 C 51.911 9.664 54.18 7.36 57.153 7.36 C 60.203 7.36 62.395 9.527 62.395 12.515 L 62.395 16.381 C 62.395 19.896 60.012 22.2 56.867 22.2 Z M 57.096 14.214 C 58.125 14.214 58.907 13.491 58.907 12.417 C 58.907 11.363 58.126 10.66 57.096 10.66 C 56.086 10.66 55.285 11.363 55.285 12.418 C 55.285 13.492 56.086 14.213 57.096 14.213 Z M 46.092 17.709 C 43.119 17.709 40.85 15.366 40.85 12.515 C 40.85 9.683 43.119 7.34 46.092 7.34 C 49.065 7.34 51.334 9.683 51.334 12.515 C 51.334 15.366 49.065 17.709 46.092 17.709 Z M 46.092 14.409 C 47.179 14.409 47.903 13.55 47.903 12.534 C 47.903 11.5 47.179 10.64 46.092 10.64 C 45.006 10.64 44.282 11.5 44.282 12.534 C 44.282 13.55 45.006 14.409 46.092 14.409 Z M 34.603 4.236 L 34.603 14.096 L 40.283 14.096 L 40.283 17.416 L 34.126 17.416 C 31.954 17.416 31.077 16.244 31.077 14.389 L 31.077 4.236 Z" fill="rgba(255, 255, 255, 0.8)"></path></svg>