<svg xmlns="http://www.w3.org/2000/svg" xmlns:xlink="http://www.w3.org/1999/xlink" viewBox="0 0 129 24"><path d="M 50.983 4.713 L 48.281 4.713 L 48.281 16.835 L 55.761 16.835 L 55.761 14.46 L 50.983 14.46 Z M 56.019 12.724 C 56.019 15.311 57.766 17.032 60.402 17.032 C 63.022 17.032 64.769 15.312 64.769 12.724 C 64.769 10.136 63.022 8.399 60.403 8.399 C 57.766 8.399 56.02 10.136 56.02 12.724 Z M 58.574 12.707 C 58.574 11.479 59.299 10.66 60.402 10.66 C 61.49 10.66 62.215 11.479 62.215 12.707 C 62.215 13.952 61.491 14.771 60.402 14.771 C 59.299 14.771 58.574 13.952 58.574 12.707 Z M 65.177 12.593 C 65.177 15.066 66.792 16.737 69.082 16.737 C 70.187 16.737 71.142 16.344 71.62 15.705 L 71.62 16.835 C 71.62 17.966 70.911 18.719 69.658 18.719 C 68.539 18.719 67.764 18.195 67.715 17.261 L 65.144 17.261 C 65.375 19.505 67.121 21.013 69.511 21.013 C 72.328 21.013 74.108 19.195 74.108 16.311 L 74.108 8.645 L 71.818 8.645 L 71.686 9.48 C 71.225 8.808 70.252 8.366 69.132 8.366 C 66.825 8.366 65.177 10.086 65.177 12.593 Z M 67.748 12.527 C 67.748 11.347 68.539 10.561 69.544 10.561 C 70.713 10.561 71.571 11.331 71.571 12.526 C 71.571 13.723 70.73 14.542 69.56 14.542 C 68.556 14.542 67.748 13.723 67.748 12.527 Z M 74.848 12.724 C 74.848 15.311 76.594 17.032 79.231 17.032 C 81.851 17.032 83.597 15.312 83.597 12.724 C 83.597 10.136 81.851 8.399 79.231 8.399 C 76.594 8.399 74.848 10.136 74.848 12.724 Z M 77.402 12.707 C 77.402 11.479 78.126 10.66 79.231 10.66 C 80.318 10.66 81.043 11.479 81.043 12.707 C 81.043 13.952 80.318 14.771 79.231 14.771 C 78.126 14.771 77.402 13.952 77.402 12.707 Z M 85.785 7.366 C 86.576 7.366 87.218 6.728 87.218 5.925 C 87.218 5.122 86.576 4.5 85.785 4.5 C 84.978 4.5 84.335 5.122 84.335 5.925 C 84.335 6.727 84.978 7.366 85.785 7.366 Z M 84.5 16.835 L 87.054 16.835 L 87.054 8.645 L 84.5 8.645 Z M 88.541 20.767 L 91.045 20.767 L 91.045 16.016 C 91.523 16.639 92.611 17.065 93.748 17.065 C 96.202 17.065 97.685 15.197 97.62 12.609 C 97.553 9.971 96.021 8.383 93.731 8.383 C 92.561 8.383 91.457 8.89 90.996 9.643 L 90.864 8.644 L 88.541 8.644 Z M 91.094 12.74 C 91.094 11.512 91.918 10.693 93.105 10.693 C 94.307 10.693 95.065 11.527 95.065 12.74 C 95.065 13.952 94.307 14.788 93.105 14.788 C 91.918 14.788 91.094 13.969 91.094 12.74 Z M 97.89 14.247 C 97.956 15.901 99.274 17.048 101.35 17.048 C 103.344 17.048 104.728 16 104.728 14.312 C 104.728 13.1 104.003 12.298 102.652 11.97 L 101.186 11.61 C 100.658 11.479 100.329 11.347 100.329 10.921 C 100.329 10.495 100.674 10.216 101.186 10.216 C 101.762 10.216 102.141 10.594 102.125 11.151 L 104.415 11.151 C 104.349 9.447 103.048 8.383 101.235 8.383 C 99.406 8.383 98.038 9.463 98.038 11.101 C 98.038 12.199 98.648 13.1 100.279 13.526 L 101.729 13.903 C 102.157 14.017 102.338 14.214 102.338 14.493 C 102.338 14.902 101.96 15.164 101.317 15.164 C 100.575 15.164 100.18 14.821 100.18 14.247 Z M 108.612 17.048 C 109.618 17.048 110.622 16.589 111.133 15.918 L 111.298 16.835 L 113.687 16.835 L 113.687 8.645 L 111.15 8.645 L 111.15 12.904 C 111.15 14.132 110.788 14.804 109.618 14.804 C 108.711 14.804 108.118 14.395 108.118 12.871 L 108.118 8.645 L 105.58 8.645 L 105.58 13.788 C 105.58 15.738 106.668 17.048 108.612 17.048 Z M 117.711 16.835 L 117.711 12.363 C 117.711 10.987 118.453 10.594 119.178 10.594 C 119.985 10.594 120.512 11.086 120.512 12.101 L 120.512 16.835 L 123.017 16.835 L 123.017 12.363 C 123.017 10.971 123.742 10.578 124.467 10.578 C 125.274 10.578 125.818 11.069 125.818 12.101 L 125.818 16.835 L 128.29 16.835 L 128.29 11.479 C 128.29 9.611 127.301 8.366 125.175 8.366 C 123.989 8.366 123.017 8.939 122.588 9.824 C 122.094 8.939 121.237 8.366 119.87 8.366 C 118.964 8.366 118.123 8.776 117.629 9.431 L 117.53 8.645 L 115.157 8.645 L 115.157 16.835 Z M 0 12 C 0 5.372 5.404 0 12.07 0 L 27.912 0 C 34.579 0 39.982 5.372 39.982 12 L 39.982 24 L 12.07 24 C 5.404 24 0 18.628 0 12 Z" fill="rgba(255, 255, 255, 0.8)"/><path d="M 12.07 19.5 C 7.904 19.5 4.526 19.5 4.526 19.5 L 4.526 4.5 C 4.526 4.5 7.904 4.5 12.07 4.5 L 27.912 4.5 C 32.079 4.5 35.456 4.5 35.456 4.5 L 35.456 19.5 C 35.456 19.5 32.079 19.5 27.912 19.5 Z" fill="rgb(186, 186, 186)"/><path d="M 8.298 12 C 8.298 9.929 9.987 8.25 12.07 8.25 C 14.153 8.25 15.842 9.929 15.842 12 C 15.842 14.071 14.153 15.75 12.07 15.75 C 9.987 15.75 8.298 14.071 8.298 12 Z" fill="rgb(0,0,0)"/><path d="M 9.807 10.5 C 9.807 10.086 10.145 9.75 10.561 9.75 C 10.978 9.75 11.316 10.086 11.316 10.5 C 11.316 10.914 10.978 11.25 10.561 11.25 C 10.145 11.25 9.807 10.914 9.807 10.5 Z" fill="rgb(255,255,255)"/><path d="M 24.895 12 C 24.895 9.929 26.583 8.25 28.667 8.25 C 30.75 8.25 32.439 9.929 32.439 12 C 32.439 14.071 30.75 15.75 28.667 15.75 C 26.583 15.75 24.895 14.071 24.895 12 Z" fill="rgb(0,0,0)"/><path d="M 26.404 10.5 C 26.404 10.086 26.741 9.75 27.158 9.75 C 27.575 9.75 27.912 10.086 27.912 10.5 C 27.912 10.914 27.575 11.25 27.158 11.25 C 26.741 11.25 26.404 10.914 26.404 10.5 Z" fill="rgb(255,255,255)"/></svg>