<svg xmlns="http://www.w3.org/2000/svg" xmlns:xlink="http://www.w3.org/1999/xlink" viewBox="0 0 103 24"><path d="M 29.365 17.4 L 36.164 17.4 L 36.164 15.46 L 31.439 15.46 L 31.439 6.404 L 29.365 6.404 L 29.365 17.4 Z M 40.248 17.629 C 41.072 17.629 41.796 17.446 42.421 17.079 C 43.044 16.714 43.554 16.183 43.892 15.544 C 44.247 14.888 44.425 14.132 44.425 13.276 C 44.425 12.426 44.25 11.675 43.9 11.024 C 43.563 10.382 43.053 9.847 42.428 9.481 C 41.804 9.109 41.077 8.923 40.248 8.923 C 39.436 8.923 38.717 9.107 38.091 9.473 C 37.468 9.838 36.959 10.37 36.621 11.008 C 36.265 11.66 36.088 12.416 36.088 13.276 C 36.088 14.126 36.26 14.88 36.606 15.537 C 36.942 16.174 37.449 16.705 38.069 17.072 C 38.694 17.444 39.42 17.629 40.248 17.629 Z M 40.248 15.689 C 39.604 15.689 39.113 15.473 38.778 15.04 C 38.447 14.602 38.282 14.014 38.282 13.276 C 38.282 12.559 38.44 11.978 38.755 11.535 C 39.075 11.087 39.573 10.863 40.248 10.863 C 40.904 10.863 41.397 11.082 41.728 11.52 C 42.063 11.958 42.231 12.543 42.231 13.276 C 42.231 13.984 42.065 14.564 41.735 15.017 C 41.41 15.466 40.914 15.689 40.248 15.689 Z M 48.525 17.629 C 48.911 17.629 49.267 17.583 49.592 17.491 C 49.909 17.406 50.212 17.275 50.492 17.102 L 50.492 17.935 C 50.502 18.24 50.423 18.494 50.255 18.698 C 50.085 18.913 49.857 19.074 49.599 19.164 C 49.32 19.272 49.023 19.326 48.723 19.324 C 48.433 19.324 48.164 19.261 47.915 19.133 C 47.675 19.01 47.478 18.815 47.351 18.576 L 45.431 19.508 C 45.746 20.042 46.196 20.473 46.779 20.798 C 47.364 21.129 48.007 21.295 48.708 21.295 C 49.312 21.295 49.874 21.213 50.392 21.05 C 50.911 20.893 51.347 20.651 51.704 20.324 C 52.064 19.999 52.31 19.584 52.443 19.08 C 52.488 18.902 52.519 18.721 52.534 18.538 C 52.554 18.359 52.564 18.169 52.564 17.965 L 52.564 9.152 L 50.75 9.152 L 50.75 9.611 C 50.465 9.389 50.142 9.218 49.798 9.107 C 49.422 8.981 49.028 8.919 48.632 8.924 C 47.844 8.924 47.158 9.112 46.574 9.489 C 45.99 9.865 45.535 10.382 45.21 11.039 C 44.889 11.69 44.73 12.437 44.73 13.277 C 44.73 14.101 44.887 14.842 45.202 15.499 C 45.522 16.155 45.967 16.675 46.536 17.056 C 47.105 17.438 47.768 17.629 48.525 17.629 Z M 48.86 15.781 C 48.413 15.781 48.047 15.669 47.763 15.445 C 47.478 15.221 47.267 14.921 47.13 14.544 C 46.993 14.162 46.924 13.74 46.924 13.276 C 46.924 12.818 46.996 12.4 47.138 12.024 C 47.28 11.642 47.499 11.339 47.793 11.115 C 48.093 10.886 48.474 10.772 48.937 10.772 C 49.587 10.772 50.052 11.003 50.331 11.467 C 50.611 11.925 50.75 12.528 50.75 13.276 C 50.75 14.025 50.608 14.63 50.324 15.094 C 50.044 15.552 49.556 15.781 48.86 15.781 Z M 57.488 17.629 C 58.311 17.629 59.036 17.446 59.66 17.079 C 60.284 16.714 60.793 16.183 61.131 15.544 C 61.487 14.888 61.665 14.132 61.665 13.276 C 61.665 12.426 61.49 11.675 61.139 11.024 C 60.803 10.382 60.293 9.847 59.668 9.481 C 59.043 9.109 58.317 8.923 57.488 8.923 C 56.675 8.923 55.957 9.107 55.331 9.473 C 54.708 9.838 54.199 10.37 53.861 11.008 C 53.505 11.66 53.327 12.416 53.327 13.276 C 53.327 14.126 53.5 14.88 53.845 15.537 C 54.182 16.174 54.689 16.706 55.309 17.072 C 55.933 17.444 56.66 17.629 57.488 17.629 Z M 57.488 15.689 C 56.843 15.689 56.352 15.473 56.017 15.04 C 55.687 14.602 55.522 14.014 55.522 13.276 C 55.522 12.559 55.679 11.978 55.995 11.535 C 56.315 11.087 56.812 10.863 57.488 10.863 C 58.143 10.863 58.636 11.082 58.967 11.52 C 59.302 11.958 59.47 12.543 59.47 13.276 C 59.47 13.984 59.305 14.564 58.975 15.017 C 58.65 15.466 58.154 15.689 57.488 15.689 Z M 62.578 8.007 L 64.652 8.007 L 64.652 6.175 L 62.578 6.175 Z M 62.578 17.4 L 64.652 17.4 L 64.652 9.153 L 62.578 9.153 Z M 66.007 21.066 L 68.095 21.066 L 68.095 17.102 C 68.364 17.27 68.661 17.4 68.987 17.492 C 69.337 17.586 69.699 17.632 70.062 17.629 C 70.818 17.629 71.482 17.438 72.051 17.056 C 72.62 16.675 73.062 16.155 73.377 15.499 C 73.697 14.842 73.857 14.101 73.857 13.276 C 73.857 12.436 73.695 11.69 73.37 11.039 C 73.049 10.382 72.597 9.865 72.013 9.489 C 71.428 9.112 70.742 8.924 69.955 8.924 C 69.528 8.924 69.137 8.985 68.781 9.107 C 68.44 9.219 68.12 9.389 67.836 9.611 L 67.836 9.152 L 66.007 9.152 Z M 69.726 15.781 C 69.035 15.781 68.548 15.552 68.263 15.094 C 67.978 14.63 67.836 14.025 67.836 13.276 C 67.836 12.528 67.976 11.925 68.255 11.467 C 68.54 11.003 69.005 10.772 69.65 10.772 C 70.112 10.772 70.491 10.886 70.786 11.115 C 71.086 11.339 71.307 11.642 71.448 12.024 C 71.591 12.401 71.662 12.818 71.662 13.276 C 71.662 13.739 71.593 14.162 71.456 14.544 C 71.319 14.921 71.108 15.221 70.824 15.445 C 70.539 15.669 70.174 15.781 69.726 15.781 Z M 77.613 17.629 C 78.69 17.629 79.533 17.387 80.143 16.903 C 80.753 16.42 81.057 15.755 81.057 14.911 C 81.057 14.269 80.859 13.763 80.463 13.391 C 80.072 13.019 79.406 12.711 78.466 12.467 C 77.985 12.348 77.507 12.216 77.033 12.07 C 76.724 11.968 76.518 11.869 76.416 11.772 C 76.32 11.677 76.268 11.548 76.271 11.413 C 76.271 11.174 76.385 10.991 76.614 10.863 C 76.848 10.736 77.155 10.685 77.536 10.711 C 78.344 10.772 78.787 11.118 78.863 11.749 L 80.981 11.367 C 80.875 10.619 80.509 10.026 79.884 9.588 C 79.259 9.145 78.461 8.924 77.491 8.924 C 76.495 8.924 75.7 9.158 75.105 9.626 C 74.511 10.094 74.213 10.726 74.213 11.52 C 74.213 12.151 74.419 12.65 74.831 13.017 C 75.242 13.378 75.951 13.689 76.957 13.948 C 77.552 14.106 77.988 14.233 78.268 14.33 C 78.552 14.426 78.736 14.526 78.817 14.628 C 78.898 14.725 78.939 14.855 78.939 15.018 C 78.939 15.277 78.837 15.481 78.634 15.628 C 78.431 15.771 78.141 15.842 77.765 15.842 C 77.307 15.842 76.929 15.733 76.63 15.514 C 76.335 15.295 76.144 14.992 76.058 14.605 L 73.939 14.926 C 74.076 15.786 74.462 16.453 75.098 16.927 C 75.738 17.395 76.576 17.629 77.613 17.629 Z M 84.882 17.644 C 85.476 17.644 85.994 17.545 86.437 17.347 C 86.859 17.162 87.238 16.892 87.549 16.552 L 87.549 17.4 L 89.378 17.4 L 89.378 9.153 L 87.29 9.153 L 87.29 13.337 C 87.29 13.847 87.231 14.259 87.115 14.575 C 87.003 14.885 86.858 15.122 86.68 15.284 C 86.517 15.434 86.321 15.544 86.109 15.605 C 85.906 15.661 85.715 15.689 85.537 15.689 C 85.095 15.689 84.752 15.59 84.509 15.392 C 84.272 15.197 84.093 14.94 83.99 14.651 C 83.886 14.368 83.822 14.073 83.799 13.773 C 83.781 13.531 83.771 13.289 83.769 13.047 L 83.769 9.153 L 81.665 9.153 L 81.665 13.78 C 81.665 13.918 81.675 14.137 81.696 14.437 C 81.716 14.737 81.775 15.071 81.871 15.437 C 81.973 15.81 82.135 16.164 82.351 16.484 C 82.58 16.82 82.898 17.097 83.304 17.316 C 83.71 17.535 84.237 17.644 84.882 17.644 Z M 90.579 17.4 L 92.667 17.4 L 92.667 12.406 C 92.667 11.932 92.796 11.548 93.056 11.253 C 93.32 10.952 93.668 10.802 94.1 10.802 C 94.552 10.802 94.906 10.955 95.159 11.26 C 95.418 11.56 95.548 11.983 95.548 12.528 L 95.548 17.4 L 97.621 17.4 L 97.621 12.406 C 97.621 11.932 97.751 11.548 98.01 11.253 C 98.274 10.952 98.622 10.802 99.054 10.802 C 99.506 10.802 99.859 10.955 100.113 11.26 C 100.372 11.56 100.502 11.983 100.502 12.528 L 100.502 17.4 L 102.575 17.4 L 102.575 11.978 C 102.575 11.077 102.334 10.349 101.851 9.794 C 101.374 9.234 100.665 8.954 99.724 8.954 C 99.196 8.954 98.711 9.068 98.269 9.298 C 97.841 9.514 97.476 9.838 97.209 10.237 C 96.995 9.849 96.679 9.527 96.295 9.305 C 95.898 9.071 95.406 8.954 94.816 8.954 C 94.318 8.954 93.861 9.053 93.444 9.252 C 93.041 9.435 92.686 9.709 92.408 10.054 L 92.408 9.152 L 90.579 9.152 Z" fill="rgba(255, 255, 255, 0.8)"/><path d="M 11.977 0 C 5.362 0 0 5.372 0 12 C 6.615 12 11.977 6.628 11.977 0 Z M 11.977 24 C 18.591 24 23.953 18.628 23.953 12 C 17.339 12 11.977 17.372 11.977 24 Z" fill="rgb(120, 120, 120)"/><path d="M 11.977 0 C 18.591 0 23.953 5.372 23.953 12 C 17.339 12 11.977 6.628 11.977 0 Z M 11.977 24 C 5.362 24 0 18.628 0 12 C 6.615 12 11.977 17.372 11.977 24 Z" fill="rgba(255, 255, 255, 0.8)"/></svg>