<svg xmlns="http://www.w3.org/2000/svg" viewBox="0 0 256 256" focusable="false" color="rgb(255, 255, 255)" style="user-select: none; width: 100%; height: 100%; display: inline-block; fill: rgb(255, 255, 255); color: rgb(255, 255, 255); flex-shrink: 0;"><g color="rgb(255, 255, 255)" weight="regular" fill="#FFFFFF"><path d="M240,128v64a8,8,0,0,1-8,8H168a8,8,0,0,1,0-16h44.69L136,107.31l-34.34,34.35a8,8,0,0,1-11.32,0l-72-72A8,8,0,0,1,29.66,58.34L96,124.69l34.34-34.35a8,8,0,0,1,11.32,0L224,172.69V128a8,8,0,0,1,16,0Z" fill="#FFFFFF"></path></g></svg>