<svg xmlns:xlink="http://www.w3.org/1999/xlink" xmlns="http://www.w3.org/2000/svg" viewBox="0 0 256 256" focusable="false" color="var(--token-7d1aeb66-0d56-4f38-8bc3-f9e169a51b6e, rgba(255, 255, 255, 0.8))" style="user-select: none; width: 100%; height: 100%; display: inline-block; fill: var(--token-7d1aeb66-0d56-4f38-8bc3-f9e169a51b6e, rgba(255, 255, 255, 0.8)); color: var(--token-7d1aeb66-0d56-4f38-8bc3-f9e169a51b6e, rgba(255, 255, 255, 0.8)); flex-shrink: 0;" width="256"  height="256" ><g color="var(--token-7d1aeb66-0d56-4f38-8bc3-f9e169a51b6e, rgba(255, 255, 255, 0.8))" weight="light" fill-opacity="0.8" fill="#FFFFFF"><path d="M222,48V96a6,6,0,0,1-6,6H168a6,6,0,0,1,0-12h33.52L183.47,72a81.51,81.51,0,0,0-57.53-24h-.46A81.5,81.5,0,0,0,68.19,71.28a6,6,0,1,1-8.38-8.58,93.38,93.38,0,0,1,65.67-26.76H126a93.45,93.45,0,0,1,66,27.53l18,18V48a6,6,0,0,1,12,0ZM187.81,184.72a81.5,81.5,0,0,1-57.29,23.34h-.46a81.51,81.51,0,0,1-57.53-24L54.48,166H88a6,6,0,0,0,0-12H40a6,6,0,0,0-6,6v48a6,6,0,0,0,12,0V174.48l18,18.05a93.45,93.45,0,0,0,66,27.53h.52a93.38,93.38,0,0,0,65.67-26.76,6,6,0,1,0-8.38-8.58Z" fill="#FFFFFF" fill-opacity="0.8"></path></g></svg>