<svg xmlns:xlink="http://www.w3.org/1999/xlink" xmlns="http://www.w3.org/2000/svg" style="width:100%;height:100%;" viewBox="0 0 200 200" preserveAspectRatio="none" width="200" height="200"><defs><svg fill="#fff" height="200" width="200" viewBox="0 0 488.4 488.4" space="preserve" stroke="#fff" id="svg-522727324_499"><path d="M0 203.25c0 112.1 91.2 203.2 203.2 203.2 51.6 0 98.8-19.4 134.7-51.2l129.5 129.5c2.4 2.4 5.5 3.6 8.7 3.6s6.3-1.2 8.7-3.6c4.8-4.8 4.8-12.5 0-17.3l-129.6-129.5c31.8-35.9 51.2-83 51.2-134.7C406.4 91.15 315.2.05 203.2.05S0 91.15 0 203.25zm381.9 0c0 98.5-80.2 178.7-178.7 178.7s-178.7-80.2-178.7-178.7 80.2-178.7 178.7-178.7 178.7 80.1 178.7 178.7z" stroke="#FFFFFF" fill="#FFFFFF"></path></svg></defs><use href="#svg-522727324_499"></use></svg>