<svg xmlns="http://www.w3.org/2000/svg" viewBox="0 0 256 256" focusable="false" color="rgb(255, 255, 255)" style="user-select: none; width: 100%; height: 100%; display: inline-block; fill: rgb(255, 255, 255); color: rgb(255, 255, 255); flex-shrink: 0;"><g color="rgb(255, 255, 255)" weight="regular"><path d="M12,111l112,64a8,8,0,0,0,7.94,0l112-64a8,8,0,0,0,0-13.9l-112-64a8,8,0,0,0-7.94,0l-112,64A8,8,0,0,0,12,111ZM128,49.21,223.87,104,128,158.79,32.13,104ZM246.94,140A8,8,0,0,1,244,151L132,215a8,8,0,0,1-7.94,0L12,151A8,8,0,0,1,20,137.05l108,61.74,108-61.74A8,8,0,0,1,246.94,140Z"></path></g></svg>